<svg id="Layer_1" data-name="Layer 1" xmlns="http://www.w3.org/2000/svg" viewBox="0 0 592 840"><defs><style>.cls-1{fill:#1e1d1c;}.cls-2{fill:#e02521;}.cls-2,.cls-3{fill-rule:evenodd;}.cls-3{fill:#ffe900;stroke:#1e1d1c;stroke-width:4px;}.cls-4{fill:#1d1d1b;}</style></defs><rect class="cls-1" x="106.67" y="247" width="378.67" height="346"/><path class="cls-2" d="M234,383l.58-6.77.65-6.77h7.27L243.58,383H234Zm4.37-54.93v.09l.3-2.19.17-1.22.43,4.61.36,4.39L240,338l.5,4,.36,3.89.36,3.67.44,3.45.36,3.24h-7l.22-2.59.21-3.17.44-3.31.5-3.74.5-4.18.58-4.46.65-4.75.25-1.85m52.75,21.25-1-.18-1.87-.14V383h6.12V356.64l-.14-1.44v-1.08l-.08-.87-.14-.86-.29-.79-.07-.51-.29-.5-.57-.58-1.16-.5-.17-.05Zm.37-12.24.77-.18.72-.36.36-.29.29-.5.22-.51.28-.72.08-1.65.14-2.23v-4.11L294.2,325l-.08-1.37-.43-1-.57-.72-.87-.5-.89-.22-1.48-.29h-1.66v16.63h1.66l1.39-.28Zm29,163,.09,14.76v17.85h126V368H434.24V308H413.86v75H408V368H393.12V351.45h12.75V337.2H393.12V323h13.54V308H372.75v75H359l5.25-37.51L369.36,308H347.91l-.79,7-.58,7.05-.36,4.25-.5,4.32-.44,4.68-.5,4.75-.36,4.83-.5,5-.36,5.11-.36,5.4-.36-5.54-.51-5.76-.65-6.12-.64-6.34-.58-6.77-.86-7-.8-7.27L337.9,308H316.37l5.91,37.52,5.9,37.51H313.13V357.36l-.07-1.52v-1.22l-.14-1.15-.15-.72-.14-.65-.36-1-.51-1.08-.72-1.15-1-1.22-1.3-1.16-.86-.5-.87-.5-1.08-.36-1.15-.51-1.37-.36-1.51-.43,1.66-.22,1.44-.21,1.29-.43,1.23-.36,1-.51,1-.5.72-.58.65-.79.5-.86.51-1,.36-1.23.36-1.36.29-1.52.14-1.8.07-1.87v-4.32l-.21-2.3-.29-1.95-.22-1.8-.5-1.72L311.4,317l-.64-1.36-.72-1.08-1.73-2-2-1.66-2.23-1.08-2.38-.79-1.44-.21-1.72-.15-2-.29-2.16-.07-1.54-.08-3.23-.06h-.7L285.7,308H267.84v75h-3.52l-2.81-18.79-2.88-18.72-3-18.72L252.72,308H223.35l-5.11,37.52L213,383h-3.53V308H183l-2.24,17.5L178.35,343l-1.51-9.51-1.52-9.5-.57-4.47-.51-4.1-.64-3.89L173,308H146.74V532.89H272.88V506.63l0-6.42,23.79,32.26,22.76-30.79Z"/><polygon class="cls-3" points="407.24 418.63 408.03 417.69 410.4 415.46 411.99 413.88 413.86 412.22 416.02 410.2 418.25 408.26 419.55 407.32 420.77 406.24 422.14 405.24 423.51 404.37 426.24 402.36 429.05 400.48 431.86 398.83 433.37 398.11 434.88 397.46 436.4 396.88 437.76 396.38 439.27 395.95 440 395.73 440.64 395.44 441.36 395.59 442.16 395.88 443.24 396.09 444.39 396.45 445.54 396.88 446.12 397.24 446.76 397.32 447.27 397.82 447.77 398.11 448.27 398.61 448.64 398.97 449 399.48 449.28 399.98 449.36 400.48 449.5 401.2 449.5 401.85 449.5 402.07 449.36 402.5 449.14 403.22 448.78 403.94 448.27 404.88 447.63 405.74 447.12 406.24 446.76 406.75 445.76 407.61 444.68 408.69 443.24 409.84 433.88 415.1 433.73 415.46 433.16 416.25 432.87 416.76 432.51 417.19 432.36 417.98 432.15 418.63 432 418.99 432 419.35 432.15 420.07 432.29 420.5 432.51 420.64 432.65 421.15 432.87 421.44 433.16 421.87 433.66 422.16 434.02 422.52 434.52 422.81 435.17 423.16 435.75 423.38 436.54 423.67 437.55 423.88 449.5 423.88 450.29 424.24 450.87 424.53 452.02 425.18 453.03 425.9 454.11 426.91 454.76 427.41 455.4 428.06 455.91 428.64 456.41 429.43 456.77 430.15 457.27 430.87 457.49 431.88 457.92 432.74 458 433.89 458.28 434.9 458.28 436.05 458.28 437.28 458 438.5 457.92 439.29 457.78 439.87 457.64 440.66 457.42 441.38 456.77 442.89 456.12 444.55 455.4 446.13 454.25 447.93 453.17 449.81 452.74 450.38 451.52 452.18 450.51 453.26 449.36 454.63 447.99 456 446.55 457.51 444.75 459.16 442.88 460.68 440.79 462.12 438.63 463.56 437.55 464.13 436.25 464.78 435.03 465.43 433.73 465.93 432.36 466.36 431 466.8 429.48 467.16 428.12 467.37 413.5 467.88 412.92 467.37 412.42 466.87 411.77 466.29 411.41 465.93 411.05 465.5 410.4 464.42 409.61 463.41 409.25 462.76 409.04 462.26 408.75 461.69 408.53 461.04 408.53 460.24 408.53 459.67 408.53 458.88 408.53 458.3 408.68 457.51 409.04 456.93 409.25 456.14 409.76 455.42 410.4 454.77 411.05 454.12 411.92 453.55 412.28 453.12 412.92 452.76 414 452.18 415.3 451.53 415.66 451.53 417.03 451.53 418.04 451.39 419.26 451.24 420.48 451.03 421.92 450.67 423.65 450.31 425.24 449.66 427.11 448.8 428.12 448.36 429.05 447.93 429.99 447.28 431 446.64 433.16 445.27 434.16 444.55 435.24 443.69 436.4 442.75 437.55 441.74 437.04 435.12 435.75 435.12 432.8 435.12 428.4 435.12 426.03 435.12 423.36 435.04 420.92 434.9 418.54 434.69 417.24 434.54 416.16 434.54 414.15 434.25 412.28 433.89 411.63 433.68 411.05 433.39 410.55 433.24 410.12 432.88 409.9 432.67 409.76 432.31 409.61 432.02 409.11 431.37 408.24 430.29 407.38 428.92 407.02 428.13 406.66 427.27 406.3 426.4 406.01 425.54 405.87 424.53 405.8 423.67 405.8 422.66 405.87 422.3 406.01 421.8 407.24 418.63"/><polygon class="cls-3" points="346.61 451.24 346.61 451.17 346.54 450.88 346.54 450.52 346.61 450.02 346.61 449.37 346.9 448.8 347.04 448.15 347.4 446.64 347.76 445.27 348.12 444.12 348.56 443.04 349.13 441.31 350 439.29 351.29 436.56 352.81 433.24 354.68 429.79 355.61 427.92 356.76 425.9 357.99 423.88 359.28 421.87 360.8 420 362.24 417.98 363.75 415.96 365.55 414.09 367.13 412.22 369 410.49 370.88 408.69 371.74 407.97 372.89 407.11 373.9 406.46 375.05 405.74 377.14 404.37 378.15 403.72 379.37 403.08 380.52 402.57 381.68 402.07 382.9 401.56 384.05 401.2 385.28 400.84 386.5 400.63 387.87 400.2 389.16 400.12 390.53 399.98 391.9 399.84 392.55 399.48 393.27 399.26 394.13 398.97 395.28 398.76 396.65 398.61 397.37 398.61 398.02 398.76 398.74 398.83 399.53 398.83 400.25 399.12 401.04 399.48 401.76 399.84 402.41 400.34 403.13 400.99 403.92 401.71 404.5 402.57 405.15 403.51 405.65 404.59 406.01 405.24 406.16 405.88 406.66 407.11 407.16 408.62 407.52 410.35 407.88 412.08 407.88 413.23 408.03 414.24 408.17 415.32 408.24 416.47 406.52 420.93 406.37 421.44 406.16 422.01 405.87 422.81 405.36 423.38 404.86 424.24 404.64 424.68 404.28 424.89 403.92 425.25 403.49 425.4 402.99 425.69 402.48 425.76 402.05 425.76 401.55 425.76 400.9 425.54 400.25 425.4 399.68 425.04 398.88 424.68 398.02 424.03 397.3 423.38 396.36 422.52 395.5 421.51 394.64 420.36 393.48 419.13 392.55 417.69 391.4 415.96 390.39 416.47 387.65 417.84 385.92 418.7 383.91 420 381.89 421.29 380.74 422.01 379.66 422.81 378.65 423.81 377.5 424.68 376.49 425.54 375.56 426.62 374.55 427.63 374.12 428.13 373.76 428.64 372.75 429.79 372.03 431.01 371.24 432.31 370.66 433.53 370.3 434.76 369.87 436.12 369.51 437.42 369.29 438.79 369.29 439.51 369.29 440.3 369.29 441.02 369.36 441.74 369.51 442.24 370.16 443.69 370.52 444.4 371.16 445.27 371.38 445.77 371.74 446.13 372.53 447.14 373.18 447.5 373.61 448 374.12 448.36 374.62 448.8 375.27 449.01 375.99 449.3 376.64 449.52 377 449.52 377.43 449.66 378.15 449.81 379.01 449.88 380.02 449.81 380.88 449.81 381.89 449.52 382.9 449.3 384.05 448.87 385.13 448.36 399.39 439.87 399.68 439.87 400.18 439.87 400.54 439.87 401.12 440.01 401.62 440.37 402.12 440.66 402.48 441.02 402.77 441.31 402.92 441.67 403.13 442.03 403.42 442.39 403.49 443.04 403.64 444.26 403.64 445.63 403.49 446.49 403.49 447.43 403.28 448.36 402.92 449.37 402.12 451.89 401.62 453.12 401.04 454.63 400.25 455.28 398.38 456.93 396.87 458.01 395.28 459.31 393.41 460.53 391.4 461.76 389.52 463.05 387.29 464.13 385.13 465.14 384.05 465.64 383.04 465.93 381.89 466.36 380.88 466.51 379.88 466.8 378.87 466.87 377.86 467.01 377.5 467.01 376.92 466.87 376.13 466.8 375.27 466.51 374.26 466.8 373.18 467.01 371.52 467.3 369.8 467.52 368.64 467.66 367.64 467.66 366.56 467.66 365.4 467.66 364.25 467.52 363.03 467.3 361.81 467.01 360.51 466.87 359.43 466.36 358.13 466 356.91 465.43 355.76 464.78 355.25 464.49 354.68 463.99 353.52 463.27 352.88 462.62 352.37 462.12 351.36 461.18 350.43 459.88 349.64 458.52 349.13 457.8 348.77 456.93 348.41 456.14 348.05 455.28 347.26 453.55 347.12 452.54 346.76 451.39 346.61 451.24"/><path class="cls-3" d="M331.49,422.16l-.72,15.26L328.54,465l-.79.28-1.87.87-1.37.36L323,467l-1.59.36-1.51.29-.72.14H317l-.72-.14-.65-.14-.5-.22-.65-.29-.36-.5-.36-.51-.29-.5-.21-.72v-2.66l.21-1.08V440.52l-2.09,4.39-.86,2-1.3,2.38L308,451.75l-1.37,2.52-1.51,2.66-1.37,2.38-1.51,2.23-1.37,2-.72.86-.65.72-.72.65-.64.57-.51.51-.65.29-.5.14h-.29l-.65.22-1.36.14-1,.14H291.1l-1.22-.14-1.16-.36-.5-.29-.5-.14-.51-.36-.5-.36-.58-.36-.43-.65-.36-.5L285,464l-.29-.72-.21-.65-.22-.86v-1l-.14-1v-.94l-2.24-12.74-.43,1.44-1.22,3.74-1.87,5.4-1.16,3-1.08,3.09-1.29,3.17-1.08,2.95-1.3,2.88-1.22,2.67-.51.93-.64,1.16-.51.79L269,478l-.51.65-.36.36-.43.21-.22.15h-.28l-1.37.21-1.37.43-1.73.22-1.73.14h-.93l-.58-.14h-.79l-.5-.22-.58-.28-.14-.15-.15-.21-.86,1.15-1,1.44-1.22,1.8-1.66,2L250.64,488l-2.31,2.37-1.22,1.23-1.23,1.29-1.29,1.37-1.37,1.08-1.37,1.15-1.37,1.08-1.51,1-1.58,1-1.44.86-1.59.94-.79.36-.86.36-1.59.5-1.51.51-.86.21-.87.15-.79.14H223l-1.66-.36h-.5l-1.44-.14-1-.15h-1.3l-.57-.21-.65-.15-1.37-.36-1.65-.5-.72-.36-.65-.29-1.73-.86-.79-.36-.72-.65-.87-.65-.79-.58-.86-.64-.58-.65-.79-.87-.72-.86-.79-.86-.72-1-3.6,2.59v4.54l-1.15.64-3.1,1.59-2.16,1.15-2.38,1.22-2.73,1.3-2.74,1.22-2.88,1.16-2.88.93L177,510l-1.51.5-2.59.79-1.37.07-1.3.29-1.22.15h-1.15l-1-.15-.94-.14-.5-.15-.43-.07-.36-.29-.36-.21-.87.21-1,.15-1.51.14h-2.52l-1-.14-.93-.15-1-.21-1.15-.15-1-.36-1.22-.36-1.16-.5-1.08-.65-1.29-.65-.51-.36-.57-.36-1.15-1-.65-.51-.58-.5-1-1.15-.5-.58L143,503l-.65-.65-.51-.72-1-1.65L140,498.4l-1-1.87-.86-2-.72-2.24-.65-2.37-.21-.79-.51-1.88-.43-1.36-.22-1.59-.28-1.8-.22-1.87-.14-2.09v-2l.14-1.23v-2.16l.22-1,.5-2.23.43-1.15.22-1.08.5-1,.51-1,.5-1,.65-1,.86-1.59.87-2.16,1.36-2.59,1.73-3.17,2.31-3.6,1.08-1.87,1.36-2,1.37-2.09,1.51-2,1.66-2,1.73-2.24,1.73-2.16,1.87-1.94,1-1.15,1-1,2.16-2,1.08-1,1-.94,2.38-1.94,2.37-1.88,2.52-1.72,1.37-.87,1.23-.72,1.36-.72,1.3-.72,1.37-.79,1.51-.58,1.37-.64,1.51-.65,1.37-.58,1.58-.5,1.37-.43,1.66-.44,1.15.08,1.22.36,1.66.5.72.29,1,.5.86.51,1,.5.86.58.87.79.5.36.5.36.8.93.43.51.43.5.72,1.15.65,1.37.21.58.29.65.51,1.51.36,1.58.14,1v4.75l-.14,1.15-.29,1.23-.36,2.37-.36,1.3-.36,1.22-.36,1.37-.51,1.37-.5,1.37-.65,1.51-.65,1.66-.72,1.51-.79,1.58-.72,1.66h-.5l-1.23-.29-.79-.14-1-.08-.93-.28-1.15-.22-1-.5-.65-.29-.5-.22-1.08-.65-.51-.21-.5-.51-.87-.79-.64-.57-.36-.44-.29-.57-.51-.51-.07-.64-.36-.58-.93-2.3-.58-1.37-.29-.65-.21-.22h-.15v.87l-2.59,3.17-.79.57-2,1.66L175,448.87l-1.51,1.44-1.73,1.58L170,453.55l-1.73,1.94-1.8,2-1,1.15-.86,1-.87,1.08L163,462l-.93,1.23-.58,1.22-.79,1.15-.58,1.23-.65,1.44-.64,1.22-.22.65-.29.58-.36,1.36v.8l-.14,2.23v1.51l.14,1.58.29,1.8.36,1.73.22.87.28.86.36.79.22.87.5.72.51.79.5.57.65.65.65.51.72.5.72.22.93.43,1,.21H168l.65-.14.57-.07.94-.15,2.38-.28,3.6-.51,2.23-.21,2.23-.51,2.38-.65,2.52-.57L188,486l1.22-.5,1.37-.51,2.52-.86,2.23-1.23,1.15-.64,1-.65,1.08-.72,1-.65.36-2,.43-2.37.72-3.1.86-3.53.51-1.94.65-2.16.72-2,.64-2.37.72-2.09,1-2.38.87-2.23,1-2.3,1.16-2.38,1.15-2.23,1.22-2.23,1.37-2,.72-1.15.79-.94,1.37-1.87.86-.93.87-.94,1.65-1.66,1-.72.72-.79,1-.72.86-.79,1.16-.58.86-.5,1.15-.5.94-.51,1.15-.5,1-.29,1.22-.36,1.15-.14.22-.08,1-.28,1.37-.36,1.8-.36,2.08-.29,2.24-.22h2.37l1.3.15,1.22.07,1.3.29H247l.65.21.65.29.58.07,1.15.65,1.08.5,1,.8.5.36.65.5.36.36.36.65.93,1.08.22.65.5.64.22.72.29.72.21.8.15.86.29.86.21.87v6.55l.72,3.31.94-1.87,2.23-5.47,3.46-7.35,2-4.24,2-4.32,2.16-4.25,2.23-4,2.09-3.6,1.15-1.66,1-1.58.86-1.37,1.15-1.3.87-1.08.86-.79.36-.36.51-.22.36-.28.36-.15.43-.07H283l.36.07.29.15.51-.15.36-.07h.36l.28.07h.36l.36.15.87.36.5.36.36.43.51.36.5.65.5.57.51.65.36,1,.5.86,1,2.52.36,1.37.5,1.51.44,1.59.36,1.87.5,1.94.22,2.38.36,2.37.14,2.6.29,2.8.21,3,2.31-4.61,2.52-4.75,2.95-5.19,1.66-2.73,1.65-2.52,1.59-2.38,1.36-2.09.8-.86.57-.79.79-.72.51-.51.57-.5h.29l.22-.29h.29l.21-.07.15.07h.21l.15-.07.36-.29.79-.5.36-.08.65-.28.57-.22.65-.14.65-.15h1.73l.86.15h1l1,.36h.5l.86.28.65.08.72.28.87.36.79.51.86.65.22.36.5.36.43.5.36.36.36.5.22.65.65,1.23.29.79.21.72.15.86.21.79.15.94v.94Zm-109.65,39-.51,1.73-.36,1.73-.21.86-.15.79-.14,1.59V471l.14.72v.8l.22,1.22.5,1.22.15.65.28.65.22.5.36.51.29.43.36.43.36.51.5.21.36.36.36.29.51.36.5.14.5.08.51.28h.5l.51.15h.64l.51-.15,1.08-.28,1-.36,1.29-.51,1.08-.72,1.15-.86,1-.87.51-.5.57-.65,1-1.22.86-1.3,1-1.51.87-1.44.79-1.66.72-1.72.65-1.8.5-1.73.36-1.59.29-1v-.8l.07-1.58.14-1.66-.14-1.51v-.72l-.07-.79-.29-1.37-.36-1.22-.14-.65-.36-.5-.15-.51-.36-.5-.21-.51-.51-.43-.29-.43-.5-.36-.36-.22-.36-.43-.5-.21-.51-.22-.5-.14h-.51l-.5-.15-.65-.14-.5.14h-.51l-1.08.15-1.15.5-1.08.5-1.15.72-1.15.87-1,.86-.58.51-.5.64-1,1.16-1,1.36-.86,1.52-1,1.44-.65,1.65-.72,1.73Z"/><polygon class="cls-3" points="333 463.56 332.64 459.88 332.14 426.4 332.14 423.52 331.78 417.84 332.64 407.25 333 406.75 333.87 405.24 335.67 403.22 336.03 402.57 336.53 402.07 337.69 400.99 338.91 399.84 340.13 398.76 340.78 398.25 341.5 397.75 342.29 397.32 343.01 396.88 343.88 396.6 344.67 396.24 345.39 395.95 346.25 395.73 347.12 395.59 347.91 395.44 348.77 395.44 349.64 395.59 351.8 398.61 351.36 421.44 349.13 427.63 349.13 442.75 347.76 449.01 346.9 463.63 345.75 465.14 345.17 465.93 344.38 466.65 343.66 467.37 342.8 468.31 342 469.03 341 469.75 340.49 469.89 340.13 470.25 339.56 470.54 339.12 470.61 338.62 470.9 338.12 471.04 337.69 471.04 337.18 471.04 336.75 470.9 336.39 470.76 335.74 470.54 335.38 470.25 333 463.56"/><polygon class="cls-4" points="191.74 382.99 191.74 357.72 191.6 332.37 188.14 357.72 184.61 382.99 185.67 382.99 189.67 382.99 191.74 382.99"/><polygon class="cls-4" points="172.01 382.99 164.45 333.45 164.45 382.99 165.17 382.99 170.67 382.99 172.01 382.99"/></svg>